<?xml version="1.0" encoding="UTF-8" standalone="no"?>
<!-- Created with Inkscape (http://www.inkscape.org/) -->

<svg
   version="1.1"
   id="svg1"
   width="521.33331"
   height="544"
   viewBox="0 0 521.33331 544"
   sodipodi:docname="x3.svg"
   inkscape:version="1.4.2 (ebf0e940d0, 2025-05-08)"
   xmlns:inkscape="http://www.inkscape.org/namespaces/inkscape"
   xmlns:sodipodi="http://sodipodi.sourceforge.net/DTD/sodipodi-0.dtd"
   xmlns="http://www.w3.org/2000/svg"
   xmlns:svg="http://www.w3.org/2000/svg">
  <defs
     id="defs1" />
  <sodipodi:namedview
     id="namedview1"
     pagecolor="#ffffff"
     bordercolor="#000000"
     borderopacity="0.25"
     inkscape:showpageshadow="2"
     inkscape:pageopacity="0.0"
     inkscape:pagecheckerboard="0"
     inkscape:deskcolor="#d1d1d1"
     showgrid="false"
     inkscape:zoom="1.04"
     inkscape:cx="198.55769"
     inkscape:cy="302.88462"
     inkscape:window-width="1920"
     inkscape:window-height="1011"
     inkscape:window-x="0"
     inkscape:window-y="0"
     inkscape:window-maximized="1"
     inkscape:current-layer="g1" />
  <g
     inkscape:groupmode="layer"
     inkscape:label="Layer 1"
     id="g1">
    <path
       id="path3"
       style="display:inline;fill:#ffcc00;fill-opacity:1;stroke:none;stroke-width:5.166;stroke-linecap:round;stroke-linejoin:round;stroke-opacity:1;paint-order:markers fill stroke;opacity:1"
       d="m 351.38086,210.2207 -20.99414,2.21094 -13.25977,5.52344 -6.35351,5.52539 -0.55274,12.70703 5.24805,8.28711 13.8125,-1.65625 15.4707,-6.90625 c 0,0 6.07617,-8.56494 6.07617,-9.66992 0,-1.10497 0.55274,-16.02149 0.55274,-16.02149 z m -193.36914,3.5918 3.31445,18.50781 15.19336,11.87891 16.57422,-0.27734 3.86719,-7.45704 -0.27539,-10.22265 c 0,0 -7.18214,-6.9043 -8.28711,-6.9043 -1.10497,0 -10.49855,-5.25 -11.60352,-5.25 -1.10497,0 -11.87744,0.27734 -12.98242,0.27734 -1.10497,0 -5.80078,-0.55273 -5.80078,-0.55273 z" />
    <path
       id="path2"
       style="display:inline;fill:#e3dedb;fill-opacity:1;stroke:none;stroke-width:5.166;stroke-linecap:round;stroke-linejoin:round;stroke-opacity:1;paint-order:markers fill stroke"
       d="M 273.75781,49.447266 258.56445,56.90625 226.79492,50 l -24.86133,2.208984 -16.02148,4.144532 -7.73438,3.039062 -12.70898,12.982422 -14.91602,8.287109 -7.5664,0.394532 -10.56445,-3.642579 -13.8418,-10.748046 -16.39453,-8.923828 -10.746097,-2.916016 -21.494141,-0.181641 -6.375,4.371094 -11.476562,10.929687 -5.099609,14.935547 -2.185547,16.394531 3.460937,33.15039 2.914063,30.60156 -0.546875,16.39258 c 0,0 -4.189372,23.49754 -4.917969,23.67969 -0.728597,0.18215 -3.460937,24.22656 -3.460938,24.22656 l -1.820312,19.49024 6.009766,17.48632 7.833984,15.48243 15.482422,20.76562 18.578125,8.19531 20.037113,7.28711 27.5039,19.85352 8.74414,20.58398 4.3711,14.38868 7.28515,10.38281 12.75196,8.74414 7.28515,7.10351 3.51367,3.11914 0.47657,0.0762 1.52539,5.13672 -1.08203,6.38476 2.64453,17.83398 10.74218,20.11719 3.90626,4.29688 9.17968,5.85937 17.96875,7.03125 18.16407,7.42188 12.30468,3.125 6.64063,-6.44531 10.54687,-2.73438 7.8125,-4.10156 25.97656,-9.57032 8.20313,-9.96093 c 0,0 5.46875,-12.89063 5.66406,-14.0625 0.19532,-1.17188 2.53905,-17.77344 2.53907,-17.77344 l -0.22852,-15.24805 14.75,-8.98828 c 0,0 15.4707,-17.68017 15.4707,-18.78515 0,-1.10497 8.83985,-18.50782 8.83985,-18.50782 0,0 7.18188,-15.74574 7.73437,-17.12695 0.55249,-1.38122 19.33789,-14.36523 19.33789,-14.36523 l 24.3086,-10.22071 c 0,0 21.27087,-9.39247 22.09961,-11.32617 0.82873,-1.9337 16.02148,-18.23047 16.02148,-18.23047 0,0 9.11719,-16.85206 9.11719,-17.95703 0,-1.10497 7.18164,-24.0332 7.18164,-24.0332 v -23.48047 l -8.83985,-33.97656 -9.66796,-23.75782 1.93359,-12.43164 10.77344,-42.8164 -1.38086,-25.138675 -8.28907,-19.060547 -14.08789,-9.117187 -22.09961,0.830078 -15.74609,5.523437 -16.57422,9.945313 -15.19336,10.498047 -10.49609,1.380859 L 347.23828,77.625 333.70117,70.166016 303.86719,50 Z M 351.38086,210.2207 c 0,0 -0.55274,14.91652 -0.55274,16.02149 10e-6,1.10498 -6.07617,9.66992 -6.07617,9.66992 l -15.4707,6.90625 -13.8125,1.65625 -5.24805,-8.28711 0.55274,-12.70703 6.35351,-5.52539 13.25977,-5.52344 z m -193.36914,3.5918 c 0,0 4.69581,0.55273 5.80078,0.55273 1.10498,0 11.87745,-0.27734 12.98242,-0.27734 1.10497,0 10.49855,5.25 11.60352,5.25 1.10497,0 8.28711,6.9043 8.28711,6.9043 l 0.27539,10.22265 -3.86719,7.45704 -16.57422,0.27734 -15.19336,-11.87891 z" />
    <path
       style="display:inline;fill:#000000"
       d="m 246.53271,480.79929 c -1.78768,-2.05601 -4.8941,-3.51728 -8.68595,-4.08591 -3.29811,-0.49458 -7.02204,-2.08639 -8.43895,-3.60727 -1.54017,-1.65317 -6.09906,-3.46894 -11.60983,-4.6241 -4.9906,-1.04611 -9.56658,-2.78253 -10.16883,-3.85869 -0.60225,-1.07616 -1.81518,-1.97166 -2.69541,-1.98999 -1.99795,-0.0416 -11.63966,-9.06158 -15.94226,-14.91421 -5.20085,-7.07449 -9.25281,-18.29145 -10.15301,-28.10634 l -0.83848,-9.14193 -13.31475,12.1041 c -7.32311,6.65726 -13.88561,11.91382 -14.58333,11.68124 -3.41257,-1.13752 -1.1152,-4.31192 11.83809,-16.35731 7.733,-7.19098 14.05701,-13.41 14.05337,-13.82003 -0.004,-0.41003 -1.35364,-2.41098 -3,-4.44654 l -2.99338,-3.70103 -5.33333,3.70077 c -2.93333,2.03543 -11.03333,8.2481 -18,13.80594 -16.62757,13.26507 -19.80982,15.28552 -21.46622,13.62912 -0.88351,-0.88351 1.71052,-3.79028 7.73513,-8.6677 4.98543,-4.03612 11.16442,-9.17629 13.73109,-11.42261 2.56667,-2.24632 7.18614,-6.16212 10.2655,-8.70177 4.90538,-4.04564 5.38601,-4.90861 3.88053,-6.96747 -1.59181,-2.17694 -2.98547,-1.68158 -18.93217,6.72921 -9.46762,4.99353 -21.77379,11.97806 -27.34705,15.52118 C 108.96022,417.10108 103.71022,420 102.86681,420 c -6.562252,0 8.24217,-11.65865 31.63745,-24.91485 C 141.3816,391.18832 147.41692,388 147.91608,388 c 0.49916,0 1.99821,-0.7975 3.33122,-1.77222 2.04445,-1.49494 2.17149,-2.2434 0.81196,-4.78371 -2.15129,-4.01971 -2.73806,-3.837 -36.32327,11.31046 -21.973541,9.91042 -28.444625,12.31721 -29.890546,11.1172 -3.575665,-2.96754 -3.753004,-2.83527 15.821216,-11.80045 3.11667,-1.42747 8.66667,-3.60207 12.33334,-4.83246 8.34503,-5.80241 24.59386,-7.97316 30.91511,-14.06185 1.24745,-1.50812 0.69801,-4.58232 -2.59952,-14.54464 -2.29972,-6.94778 -4.96152,-13.42519 -5.91512,-14.39423 -0.95359,-0.96905 -1.73381,-2.23512 -1.73381,-2.8135 0,-0.57837 -1.9929,-3.16468 -4.42868,-5.74736 -3.09439,-3.28101 -6.09539,-4.97735 -9.96075,-5.6304 -3.04264,-0.51405 -6.89973,-1.99339 -8.57132,-3.28742 -1.67159,-1.29403 -4.83925,-2.77752 -7.03925,-3.29664 -11.224435,-2.64857 -13.999997,-3.72304 -13.999997,-5.41964 0,-1.17197 -2.674354,-2.40927 -7.269264,-3.36317 -5.018086,-1.04175 -7.509293,-2.26536 -8.044338,-3.95114 -0.426291,-1.34312 -2.555122,-3.17936 -4.730736,-4.08053 -2.175613,-0.90117 -3.955661,-2.4657 -3.955661,-3.47673 0,-1.01103 -0.587806,-1.83824 -1.306235,-1.83824 -0.718429,0 -6.090588,-0.61202 -7.674566,-3.72868 -1.583978,-3.11667 -6.645599,-10.97907 -10.774317,-17.94574 -9.948112,-16.78612 -6.982099,-21.90763 -7.840516,-38.32558 -0.764878,-14.62891 0.882936,-29.56717 4.407781,-39.95877 6.281901,-18.51967 7.150065,-40.814 2.499193,-64.17889 -5.882426,-29.55192 -3.140918,-65.506107 5.422687,-71.117197 1.796286,-1.176971 3.265974,-2.892505 3.265974,-3.812298 0,-2.650783 7.758622,-8.753479 13.20213,-10.384394 2.734489,-0.819273 10.630921,-1.277686 17.551098,-1.018897 10.454258,0.390951 13.293408,0.979244 16.801227,3.481341 2.32162,1.65599 6.11225,3.389117 8.42363,3.851393 2.31138,0.462276 5.13088,2.257375 6.26556,3.989109 1.13467,1.731733 3.144,3.148606 4.46516,3.148606 1.32116,0 3.50215,1.497804 4.84665,3.328454 1.3445,1.830649 5.94598,5.040129 10.22551,7.132177 l 7.78096,3.803723 8.20658,-3.314783 c 4.51361,-1.823131 9.71218,-4.741549 11.55237,-6.485375 1.84018,-1.743825 6.37237,-6.074936 10.07152,-9.62469 8.35164,-8.014338 13.48069,-10.384074 24.88896,-11.499264 6.09057,-0.59537 10.09316,-1.775456 12.53397,-3.695397 3.02077,-2.376132 5.46214,-2.833113 15.48998,-2.89944 9.70326,-0.06418 12.20957,0.338396 13.55668,2.177547 0.90895,1.240957 4.21375,3.138657 7.34398,4.217112 4.96245,1.709701 6.27818,1.715632 10.27342,0.04631 2.52014,-1.052982 5.76825,-3.100682 7.21801,-4.550444 2.23322,-2.23322 4.46012,-2.635932 14.57606,-2.635932 10.66674,0 12.90635,0.456123 21,4.276882 4.98293,2.352284 9.35987,4.621974 9.72653,5.043753 0.36667,0.42178 3.96667,2.833455 8,5.359278 4.03334,2.525823 10.91068,7.201291 15.283,10.389928 11.12247,8.111394 15.73485,9.806587 23.92402,8.792829 7.79275,-0.964684 18.12632,-5.034165 18.12632,-7.138358 0,-0.7841 2.7,-2.737398 6,-4.340662 3.29999,-1.603263 6.02397,-3.545465 6.05328,-4.316004 C 388.08258,58.630441 391.9603,55.75 396.67043,53 c 10.61854,-10.49567 12.40428,-7.931101 27.37498,-8.875969 17.90927,-1.130335 21.31368,4.127425 22.87897,6.351357 0.95825,1.361463 3.12884,2.913504 4.82355,3.448979 1.6947,0.535476 3.74101,2.421552 4.54735,4.19128 0.80634,1.769727 1.90412,3.217686 2.43951,3.217686 0.5354,0 1.29573,1.95 1.68964,4.333334 C 460.81834,68.05 461.75786,72.7 462.51224,76 c 3.26871,14.298779 1.55793,34.82644 -4.72262,56.66667 -0.42177,1.46666 -1.67728,7.71918 -2.79003,13.89449 -1.53328,8.50907 -1.65711,11.81399 -0.51139,13.64857 0.83148,1.33142 1.51178,3.25543 1.51178,4.27559 0,1.02015 0.9,2.60176 2,3.51468 1.1,0.91292 2,2.79453 2,4.18135 0,1.38683 0.54956,3.56336 1.22125,4.83674 3.03072,5.74567 5.52272,12.50006 7.05749,19.12883 2.29309,9.90396 2.22871,44.17891 -0.0974,51.85308 -4.09023,13.49432 -8.92096,28.6758 -17.24394,40.89051 -3.84969,5.64975 -9.32616,10.04616 -9.80129,11.19099 -0.47513,1.14482 -3.39291,2.83922 -6.48396,3.76532 -3.5337,1.05872 -5.86939,2.63715 -6.29163,4.25183 -0.36936,1.41241 -1.35157,2.57136 -2.18271,2.57545 -4.40393,0.0217 -11.28449,2.98176 -11.83636,5.09214 -0.43051,1.64627 -2.92435,2.90491 -8.01133,4.04333 -5.02107,1.12366 -7.58277,2.40452 -8,4 -0.42106,1.61015 -3.02627,2.88692 -8.29776,4.06663 -5.25691,1.17645 -7.87712,2.4581 -8.2954,4.05763 -0.33628,1.28591 -2.66466,3.31714 -5.17419,4.51385 -2.50953,1.19672 -4.56278,3.06444 -4.56278,4.1505 0,1.08607 -1.2,2.61688 -2.66667,3.40182 -1.46667,0.78494 -2.66667,2.22513 -2.66667,3.20043 0,0.97531 -1.2,3.29883 -2.66666,5.1634 -4.69046,5.96295 -3.59518,8.12073 5.66666,11.16377 4.58334,1.50588 19.8827,7.77821 33.99858,13.93852 19.80387,8.64259 25.66557,11.75395 25.66667,13.62373 0.002,2.78444 -3.23575,2.22281 -9.99858,-1.73457 -2.2,-1.28736 -7,-3.43815 -10.66667,-4.77952 -3.66667,-1.34137 -6.96667,-2.82317 -7.33333,-3.29289 -1.45871,-1.86869 -33.1709,-13.13244 -38.08594,-13.52763 -4.46085,-0.35867 -5.30673,-0.007 -5.64323,2.34741 -0.30793,2.1543 0.87651,3.30368 5.33333,5.17549 3.15105,1.32339 10.04217,4.4272 15.31362,6.89735 10.43259,2.97886 17.90955,9.70061 27.05742,15.21646 11.09937,6.62602 13.78275,9.3642 10.9142,11.13706 -0.61083,0.37751 -3.45104,-0.90398 -6.31158,-2.84777 -15.32731,-10.41518 -50.83328,-28.34791 -56.12754,-28.34791 -1.55431,0 -5.27985,6.53233 -4.15425,7.28402 0.20385,0.13614 3.91396,2.21072 8.24469,4.61019 4.33073,2.39948 12.93249,7.75488 19.11501,11.9009 6.18252,4.14603 12.19672,8.13823 13.36488,8.87156 5.35195,3.35979 9.61373,7.899 8.48034,9.03239 -1.4938,1.49379 -0.61227,1.97068 -30.16762,-16.32007 -16.40078,-10.14986 -24.12517,-14.25607 -24.39532,-12.96831 -0.21743,1.03644 -1.92848,2.58299 -3.80234,3.43678 -4.63861,2.11349 -3.46308,3.33354 15.7755,16.37282 16.48896,11.17568 18.11548,12.6265 16.23932,14.48518 -0.63972,0.63375 -10.51137,-4.78657 -22.23537,-12.209 -17.80628,-11.27309 -21.4037,-13.08416 -23.13523,-11.64712 -1.52478,1.26546 -1.86127,3.25446 -1.31272,7.75949 0.40569,3.33181 -0.0417,11.91368 -0.99423,19.07081 -1.64774,12.38105 -2.03719,13.40616 -8.01981,21.11006 -3.45838,4.45341 -6.60327,8.91878 -6.98864,9.92305 -0.38538,1.00427 -3.39415,2.22986 -6.68616,2.72352 -3.29201,0.49367 -7.02842,2.01705 -8.30313,3.38529 -1.27471,1.36824 -5.5781,3.10008 -9.56309,3.84854 -3.98499,0.74846 -8.87115,2.55387 -10.85812,4.01203 -1.98697,1.45817 -5.17238,2.65121 -7.07869,2.65121 -1.9063,0 -3.13735,0.53178 -2.73565,1.18174 0.4017,0.64996 -0.46289,1.49379 -1.92131,1.87518 -1.45842,0.38138 -2.65167,1.57962 -2.65167,2.66274 0,1.94 -3.75832,3.55983 -8.34215,3.59546 -1.28818,0.01 -3.59449,-1.42211 -5.12513,-3.1825 z m 8.13395,-6.48261 c 0,-0.94792 3.93184,-2.75092 9,-4.12706 4.95,-1.34406 9.75,-2.66774 10.66666,-2.9415 0.91667,-0.27377 1.66667,-1.40854 1.66667,-2.52171 0,-1.11318 2.1,-2.90139 4.66667,-3.97381 2.56666,-1.07243 4.66666,-2.69181 4.66666,-3.59863 0,-1.78352 5.20086,-7.82064 6.73733,-7.82064 0.51653,0 1.68474,1.8 2.59601,4 1.56673,3.78245 5.33333,5.61769 5.33333,2.59863 0,-0.77075 2.12129,-2.2877 4.71399,-3.37099 2.59269,-1.0833 5.30273,-3.30268 6.0223,-4.93197 0.71957,-1.62928 2.79648,-5.60331 4.61535,-8.83116 2.37191,-4.2093 3.62163,-9.11064 4.41958,-17.33333 1.57511,-16.23122 1.41761,-16.56443 -6.23325,-13.18742 -5.36285,2.3671 -9.14417,2.76083 -27.8713,2.90206 -11.91667,0.0899 -21.66667,-0.28868 -21.66667,-0.84121 0,-0.55253 -1.16459,-1.00461 -2.58798,-1.00461 -1.42339,0 -2.98496,-0.64233 -3.47016,-1.42741 -1.08582,-1.75689 -9.78343,-0.44572 -15.30053,2.30657 -5.23455,2.61134 -39.3756,1.82873 -47.38113,-1.08611 l -5.40646,-1.96851 -2.45156,5.04014 c -3.73099,7.6705 -1.96289,18.18203 5.38388,32.00771 1.03434,1.94648 1.88061,4.48505 1.88061,5.64127 0,1.15621 1.54375,2.48966 3.43057,2.96322 1.88681,0.47356 3.94348,2.21009 4.57038,3.85895 0.77292,2.03295 2.68023,3.28692 5.92544,3.89573 6.0301,1.13125 7.09724,0.44184 8.17035,-5.27833 0.47669,-2.54094 1.18378,-4.61989 1.57132,-4.61989 1.36906,0 4.24769,4.69757 4.28953,7 0.0233,1.28333 0.62241,2.33333 1.3313,2.33333 0.70889,0 3.38889,2.1 5.95555,4.66667 2.72696,2.72696 5.98972,4.66666 7.84975,4.66666 1.75069,0 4.80161,1.5 6.77981,3.33334 3.77279,3.4965 10.126,4.53175 10.126,1.65001 z m -30.78617,-74.85614 c 1.6566,-1.76337 5.20014,-3.61663 7.87454,-4.11835 6.22856,-1.16848 9.57829,-2.97832 9.57829,-5.17508 0,-0.95649 1.5,-2.42252 3.33334,-3.25784 1.85216,-0.8439 3.33333,-2.64386 3.33333,-4.05076 0,-5.94021 7.31905,-6.70255 8.77196,-0.91367 0.41744,1.66319 2.77309,3.94929 5.32183,5.1647 2.51508,1.19936 4.57288,3.04992 4.57288,4.11237 0,2.04625 1.52623,2.68004 9.84753,4.08935 2.84947,0.48259 7.34059,2.03498 9.98025,3.44975 6.91055,3.70384 23.77834,3.64807 28.53604,-0.0943 1.86457,-1.46667 4.79548,-2.67951 6.51315,-2.6952 2.38075,-0.0217 0.90471,-1.46183 -6.21031,-6.05899 -5.13333,-3.31675 -9.51655,-6.84797 -9.74049,-7.84715 -0.91482,-4.08181 2.9476,-3.18262 13.75897,3.20317 12.55666,7.41666 12.64819,7.45322 12.64819,5.05223 0,-0.9236 1.26674,-2.47036 2.81497,-3.43725 2.71732,-1.697 2.72888,-1.81774 0.33334,-3.48042 -1.36491,-0.94734 -5.63675,-3.36612 -9.49298,-5.37508 -7.52541,-3.92046 -8.94275,-5.27823 -7.66611,-7.34388 0.47721,-0.77214 4.62812,0.60524 10.0454,3.33334 5.07768,2.55707 10.62712,4.64923 12.33209,4.64923 2.88347,0 6.29995,-2.16602 6.29995,-3.99411 0,-0.43675 -4.78009,-2.53217 -10.62243,-4.65648 -5.84234,-2.1243 -10.92351,-4.64696 -11.29149,-5.60589 -0.90045,-2.34655 4.39277,-2.27861 9.37574,0.12033 2.12933,1.02512 5.27059,2.28113 6.98056,2.79113 2.67486,0.79777 3.04727,0.50946 2.66667,-2.06453 -0.33815,-2.28687 -1.93463,-3.42525 -6.77571,-4.83147 -3.48334,-1.01182 -6.33334,-2.42152 -6.33334,-3.13266 0,-0.71115 0.0273,-1.74299 0.0606,-2.29299 0.0606,-0.99966 3.18621,-0.85137 9.05743,0.42971 2.90383,0.6336 3.05261,0.38252 2.16583,-3.655 -1.25506,-5.71422 -5.67594,-14.08609 -8.52163,-16.13748 -1.24914,-0.90048 -2.66628,-2.69623 -3.1492,-3.99057 -0.48291,-1.29434 -2.35692,-2.91562 -4.16446,-3.60285 -1.80753,-0.68722 -3.92159,-2.43631 -4.69791,-3.88687 -0.77631,-1.45055 -2.70151,-2.82927 -4.27823,-3.06382 -1.57671,-0.23455 -3.30849,-1.32645 -3.8484,-2.42645 -2.03002,-4.13592 -3.83091,-8.83429 -5.36623,-14 -0.87183,-2.93334 -2.14377,-6.42688 -2.82654,-7.76344 -0.68276,-1.33656 -1.60399,-7.56819 -2.04717,-13.84806 -0.65338,-9.25853 -0.46482,-11.3043 0.99701,-10.81703 1.05495,0.35165 2.45854,4.43685 3.3836,9.84806 1.8565,10.85973 5.74578,23.24713 7.29893,23.24713 0.5995,0 1.51652,1.35 2.0378,3 0.52129,1.65 2.06172,3.78403 3.42319,4.74228 1.36146,0.95824 2.47538,2.53924 2.47538,3.51332 0,0.97407 1.5,2.75388 3.33334,3.95513 1.83333,1.20124 3.33333,3.0267 3.33333,4.05657 0,1.02987 1.5,3.05239 3.33333,4.49449 1.83334,1.4421 3.33334,3.25583 3.33334,4.03052 0,0.77469 0.90051,1.91247 2.00113,2.52841 2.28646,1.27957 7.30866,10.55423 7.37945,13.62787 0.026,1.12828 0.95329,3.55141 2.06069,5.38475 1.9318,3.19817 1.99404,3.03473 1.53484,-4.03045 -0.26323,-4.05008 -1.49055,-9.39227 -2.72736,-11.87152 -1.23681,-2.47925 -2.24875,-5.22256 -2.24875,-6.09623 0,-0.87368 -1.2,-2.67449 -2.66667,-4.0018 -1.46667,-1.32732 -2.66667,-3.18629 -2.66667,-4.13105 0,-0.94476 -1.05685,-2.50177 -2.34857,-3.46001 -1.29171,-0.95825 -3.39811,-3.24228 -4.68088,-5.07561 -11.80254,-16.86816 -13.97972,-21.56087 -15.10674,-32.56128 -1.39605,-13.62627 3.3669,-23.10456 7.61838,-15.16059 0.8668,1.61963 2.81633,3.94915 4.33229,5.1767 2.4099,1.95142 2.55286,2.67839 1.13758,5.78461 -3.33529,7.32016 -0.87775,23.63614 3.94922,26.21946 1.33763,0.71587 2.43206,2.19334 2.43206,3.28326 0,1.08992 1.5,2.66512 3.33333,3.50045 1.83333,0.83532 3.33333,2.58704 3.33333,3.89272 0,1.30568 0.63701,2.76765 1.41558,3.24883 3.03432,1.87531 9.20908,24.25552 9.23535,33.47319 0.0229,8.02317 3.08369,8.4153 5.2407,0.6714 3.21674,-11.54849 4.65587,-15.52343 6.3843,-17.63374 0.94824,-1.15774 1.72407,-2.79233 1.72407,-3.63242 0,-0.8401 1.75748,-2.43627 3.90551,-3.54706 2.14803,-1.11079 4.26524,-3.15304 4.70492,-4.53834 0.49876,-1.57144 3.06185,-3.15216 6.81506,-4.20299 3.30861,-0.92635 6.59693,-2.77041 7.30738,-4.0979 0.84092,-1.57128 4.09729,-2.96557 9.33076,-3.9952 4.88771,-0.96159 8.50474,-2.45175 9.22704,-3.80138 0.73764,-1.3783 4.49128,-2.87638 9.90179,-3.95182 6.4068,-1.27347 8.92399,-2.39431 9.50774,-4.23356 0.47352,-1.49193 2.914,-3.0724 6.04688,-3.91599 2.91463,-0.78483 5.25292,-2.23879 5.25292,-3.2663 0,-1.01851 1.35303,-2.94538 3.00673,-4.28194 4.6292,-3.74142 8.75527,-10.64396 15.00188,-25.09678 9.37963,-21.70168 9.08208,-56.82444 -0.66642,-78.66666 -7.44378,-16.67831 -11.21924,-23.45211 -13.91091,-24.95844 -1.15387,-0.64574 -2.09795,-1.99532 -2.09795,-2.99907 0,-1.00375 -2.1,-3.12287 -4.66666,-4.70916 -2.56667,-1.58629 -4.66667,-3.67653 -4.66667,-4.64498 0,-0.96845 -1.75351,-2.3721 -3.8967,-3.11921 -2.14318,-0.74712 -4.53051,-2.54271 -5.30518,-3.99019 -0.77467,-1.44749 -3.22907,-3.26645 -5.45422,-4.04215 -2.22515,-0.77569 -4.41059,-2.36115 -4.85653,-3.52325 -0.44594,-1.1621 -2.78021,-2.93578 -5.18727,-3.94151 -2.40706,-1.00573 -4.76148,-3.04168 -5.23206,-4.52433 -0.49753,-1.5676 -2.50423,-3.05782 -4.79514,-3.56099 -2.16676,-0.4759 -3.93957,-1.67474 -3.93957,-2.66409 0,-2.05015 -3.57036,-5.9893 -5.42857,-5.9893 -2.02165,0 -1.40667,7.53358 0.76191,9.33333 1.1,0.91292 2,2.3934 2,3.28995 0,0.89655 1.2,2.71607 2.66666,4.04339 1.46667,1.32731 2.66667,2.94601 2.66667,3.5971 0,0.65109 5.1,6.21536 11.33333,12.36506 6.23334,6.14969 11.33334,11.71579 11.33334,12.3691 0,0.65331 1.5,2.49208 3.33333,4.08614 1.83333,1.59406 3.33333,3.65793 3.33333,4.58638 0,0.92845 1.2,2.4375 2.66667,3.35345 1.46667,0.91595 2.66667,2.44028 2.66667,3.3874 0,0.94712 0.70072,2.42276 1.55716,3.2792 4.72855,4.72855 7.41857,22.65203 5.14929,34.3095 -0.85651,4.4 -1.70346,8.7665 -1.88211,9.70333 -0.17864,0.93682 -0.8872,1.83682 -1.57457,2 -0.68738,0.16317 -1.62829,-3.93712 -2.09093,-9.11175 -0.78999,-8.8362 -4.62807,-19.28212 -7.80646,-21.24647 -0.74381,-0.4597 -1.35238,-1.85608 -1.35238,-3.10307 0,-1.24699 -1.2,-3.01666 -2.66667,-3.93261 -1.46667,-0.91595 -2.66667,-2.83917 -2.66667,-4.27382 0,-1.43465 -1.2168,-3.25967 -2.70401,-4.0556 -1.4872,-0.79592 -2.36257,-1.99959 -1.94527,-2.67481 0.41731,-0.67521 -0.76589,-2.55331 -2.62932,-4.17355 -1.86343,-1.62023 -3.38806,-3.54043 -3.38806,-4.26711 0,-0.72668 -0.99673,-2.42261 -2.21496,-3.76873 -1.21823,-1.34613 -2.86823,-3.59128 -3.66667,-4.98922 -0.79844,-1.39794 -4.46119,-6.94381 -8.13946,-12.32415 C 387.63397,138.4021 383.81438,131.3 382.82426,128 c -0.99012,-3.3 -2.29612,-7.5 -2.90223,-9.33333 -0.60611,-1.83334 -1.29907,-8.00086 -1.53991,-13.70561 -0.36786,-8.713536 -0.11359,-10.310916 1.58999,-9.988599 1.11533,0.211021 2.21523,2.002697 2.44423,3.981504 0.28453,2.458675 1.95778,4.550485 5.2847,6.606635 2.67759,1.65484 5.94023,4.08069 7.25031,5.39077 2.4786,2.47859 6.00902,3.04431 8.4969,1.36155 2.50706,-1.69574 4.55173,-9.7462 4.55173,-17.921458 0,-9.09745 2.23468,-19.453071 4.85458,-22.49645 0.99665,-1.157743 1.81209,-3.07372 1.81209,-4.257728 0,-5.511989 9.83976,-7.534495 25.32359,-5.20512 5.23386,0.787378 6.28132,1.519529 8.29537,5.798264 3.55399,7.550269 5.72504,26.938629 4.00536,35.769572 -2.12537,10.91425 -4.21363,18.73265 -6.21725,23.27726 -0.98353,2.23084 -2.17601,4.95607 -2.64995,6.05607 -1.31478,3.05155 -3.99443,7.47445 -5.97244,9.8578 -1.51337,1.82351 -1.443,2.1422 0.47305,2.1422 3.51377,0 7.41421,-2.54674 8.80291,-5.74773 0.69648,-1.60541 1.7745,-3.81893 2.39561,-4.91893 3.74876,-6.6392 4.82443,-9.41829 6.21658,-16.06114 2.15139,-10.26565 2.42115,-24.226588 0.68156,-35.27318 -2.00351,-12.722522 -3.9812,-17.925529 -8.68772,-22.856094 -3.55255,-3.72166 -5.12015,-4.295146 -14.01358,-5.126687 -10.96204,-1.024957 -24.45585,0.82625 -27.87719,3.824454 -1.16008,1.016605 -5.49422,2.816194 -9.63142,3.999088 -4.13721,1.182893 -7.85634,3.021483 -8.26474,4.085755 -0.4084,1.064272 -2.72341,2.952467 -5.14447,4.195989 -2.42107,1.243522 -5.67428,3.622018 -7.22937,5.285545 -6.09559,6.520636 -31.28063,5.696984 -38.22782,-1.250202 C 335.02512,73.570589 332.27081,72 330.82403,72 c -1.44677,0 -3.73864,-1.408783 -5.09305,-3.130629 -1.3544,-1.721846 -4.84795,-3.891319 -7.76344,-4.821052 -2.91549,-0.929733 -6.31661,-2.97095 -7.55805,-4.536038 -2.10402,-2.65254 -3.47492,-2.845614 -20.20485,-2.845614 -17.80166,0 -17.97492,0.02939 -21.29586,3.612742 -1.8415,1.987008 -4.87781,3.996656 -6.74737,4.465885 -1.86956,0.469229 -3.76133,1.994132 -4.20394,3.388673 -1.85809,5.854327 -11.49006,5.680129 -13.0371,-0.235781 -0.3545,-1.355598 -2.33403,-2.802608 -4.44634,-3.250217 -3.98691,-0.844844 -4.76565,-1.228843 -9.95368,-4.90822 C 221.3472,53.234113 185.49083,54.53564 183.29504,61.45395 182.8506,62.854278 181.61034,64 180.53893,64 c -1.8423,0 -5.94419,3.341848 -15.71968,12.806963 -2.35184,2.277164 -6.64829,4.899645 -9.54766,5.827737 -2.89938,0.928092 -5.8416,2.214958 -6.53826,2.859703 -1.88777,1.747076 -6.69741,1.419529 -10.95862,-0.746307 -2.07609,-1.055213 -5.72472,-2.628006 -8.10805,-3.495094 -2.38333,-0.867087 -4.33333,-2.388323 -4.33333,-3.380522 0,-0.9922 -1.8,-2.734816 -4,-3.87248 -2.2,-1.137664 -4,-2.856763 -4,-3.82022 0,-1.812017 -5.40155,-4.846447 -8.6271,-4.846447 -1.00923,0 -3.7901,-1.645133 -6.1797,-3.65585 -4.163738,-3.503556 -4.961692,-3.656302 -19.154942,-3.666667 L 68.561377,58 62.324413,63.333333 c -3.43033,2.933334 -6.25664,6.263334 -6.28069,7.4 -0.02405,1.136667 -0.74445,2.767392 -1.600892,3.623834 -4.784299,4.784299 -7.691752,29.264703 -4.966194,41.814753 2.111889,9.72436 6.661658,23.75617 7.963808,24.56095 0.674421,0.41681 1.226219,1.94126 1.226219,3.38767 0,1.4464 0.845852,2.9544 1.87967,3.35112 1.033819,0.39671 2.22864,2.1117 2.655158,3.81108 0.426518,1.69939 1.612755,3.41108 2.636083,3.80377 2.404978,0.92287 1.317967,-4.08793 -1.623488,-7.48381 -1.142075,-1.31851 -2.241397,-3.11851 -2.442937,-4 -0.20154,-0.88148 -1.983626,-6.7027 -3.960191,-12.93603 -3.107255,-9.7991 -3.608456,-13.70581 -3.702358,-28.85874 -0.09577,-15.454715 0.191506,-17.85718 2.43138,-20.333338 1.396991,-1.544359 2.074642,-2.807925 1.505891,-2.807925 -2.320042,0 10.512783,-11.013036 13.997304,-12.012384 5.493099,-1.5754 13.663964,0.712829 18.424343,5.159688 4.642182,4.336448 8.199144,15.346189 8.199144,25.378528 0,6.355461 4.429547,17.211041 7.504287,18.390931 2.16097,0.82925 2.43231,5.94664 0.42191,7.95704 -0.77393,0.77393 -1.02612,2.92526 -0.56043,4.78073 1.06337,4.23681 5.58757,3.51853 7.37019,-1.17013 0.65892,-1.73309 1.79382,-3.15107 2.52199,-3.15107 1.87544,0 14.74205,-12.68466 14.74205,-14.53359 0,-0.84283 1.51076,-2.1068 3.35725,-2.80883 1.84648,-0.70204 3.93163,-2.78719 4.63366,-4.63367 1.60751,-4.228074 4.55449,-4.550118 3.26909,-0.35724 -0.50584,1.65 -1.34782,3.6 -1.87107,4.33333 -0.52325,0.73333 -2.00531,4.78222 -3.29347,8.99753 -1.28815,4.2153 -2.8866,8.00071 -3.55211,8.41202 -0.66551,0.4113 -1.21002,1.8784 -1.21002,3.2602 0,1.38181 -1.05923,3.2964 -2.35386,4.25464 -1.29462,0.95825 -3.08176,3.39228 -3.97141,5.40894 C 124.78506,138.35 123.4443,140 122.69525,140 c -0.74906,0 -1.36192,1.21883 -1.36192,2.70851 0,1.48969 -0.87235,3.04327 -1.93855,3.45241 -1.7102,0.65626 -4.55299,4.47765 -9.5737,12.86932 -0.83173,1.39017 -2.18173,3.19707 -3,4.01534 -0.81826,0.81826 -1.48775,2.47476 -1.48775,3.6811 0,1.20635 -1.2,3.27934 -2.66667,4.60665 -1.46666,1.32732 -2.666664,3.12732 -2.666664,4 0,0.87269 -1.2,2.67269 -2.666666,4 -1.466667,1.32732 -2.666667,3.53914 -2.666667,4.91517 0,1.37602 -0.9,2.84722 -2,3.26933 -1.1,0.42211 -2,1.82981 -2,3.12823 0,1.29841 -0.9,3.10769 -2,4.02061 -1.1,0.91292 -2,2.52583 -2,3.58424 0,1.05842 -0.732166,3.23496 -1.627035,4.83675 -3.185601,5.70213 -5.03418,12.37123 -5.888991,21.24567 -0.476798,4.95 -1.302682,9 -1.835299,9 -2.422409,0 -3.999113,-15.69229 -2.621786,-26.09357 1.746775,-13.19128 3.945904,-24.43923 5.310204,-27.16027 0.57345,-1.14372 1.730954,-3.57949 2.572231,-5.41282 2.344389,-5.10896 4.771335,-9.06883 7.20905,-11.76248 1.218228,-1.34612 2.214959,-3.05726 2.214959,-3.80253 0,-0.74526 1.2,-2.44101 2.666667,-3.76833 1.466667,-1.32731 2.666667,-3.10747 2.666667,-3.9559 0,-0.84843 1.858664,-2.91678 4.13037,-4.59632 2.58568,-1.91168 3.66038,-3.5237 2.87365,-4.31042 -1.78536,-1.78536 -13.091469,5.83677 -23.511654,15.85064 -1.710079,1.64339 -5.295439,3.90145 -7.967467,5.01789 -2.672027,1.11645 -4.858232,2.90802 -4.858232,3.98127 0,1.07325 -1.5,2.93421 -3.333333,4.13545 -1.833333,1.20125 -3.333333,2.92209 -3.333333,3.82409 0,0.902 -1.2,2.72599 -2.666667,4.0533 -1.466666,1.32732 -2.666666,3.14684 -2.666666,4.04339 0,0.89655 -0.855625,2.3402 -1.901389,3.20811 -3.278975,2.7213 -7.442069,18.79958 -8.997314,34.7485 -1.259185,12.91285 -1.14934,17.63713 0.695852,29.92745 1.205088,8.02676 2.79372,15.19676 3.530293,15.93333 0.736574,0.73657 1.339225,2.41922 1.339225,3.73922 0,2.33502 0.853361,3.58639 7.484848,10.97576 1.75,1.95 3.181818,4.43105 3.181818,5.51343 0,1.08239 1.491586,2.6476 3.314636,3.47823 1.82305,0.83064 4.201797,2.86423 5.286106,4.5191 1.084308,1.65486 4.092722,3.70891 6.685363,4.56456 2.592642,0.85565 4.713894,2.38568 4.713894,3.40005 0,1.18442 2.901013,2.44353 8.107771,3.51896 4.919323,1.01607 8.580026,2.55705 9.308648,3.91849 0.818942,1.53021 3.772041,2.54228 9.285131,3.18214 6.39655,0.7424 8.50982,1.58776 10.12273,4.04937 1.12116,1.71111 3.80478,3.49905 5.9636,3.9732 2.47777,0.54421 4.66671,2.29614 5.9362,4.75108 1.10609,2.13893 2.91449,3.88897 4.01867,3.88897 1.10418,0 2.37818,1.05 2.83111,2.33333 0.45293,1.28333 1.86932,3.53333 3.14753,5 2.14481,2.46103 3.37038,6.45884 6.64799,21.68573 1.41987,6.5963 3.81744,11.57189 5.00424,10.38509 0.45333,-0.45333 0.67522,-3.35472 0.49308,-6.44753 -0.44596,-7.57267 2.16299,-29.83583 4.17458,-35.62329 0.89212,-2.56667 2.67278,-5.45069 3.95704,-6.40894 1.28426,-0.95825 2.33501,-2.58714 2.33501,-3.61975 0,-1.03262 1.16957,-2.50342 2.59905,-3.26846 1.42948,-0.76503 3.50787,-3.03614 4.61863,-5.04691 5.58608,-10.11219 6.27739,-12.74687 5.9837,-22.80493 l -0.29703,-10.17288 4.92437,-2.00573 c 3.02702,-1.23293 5.22027,-3.16162 5.69237,-5.00573 0.88617,-3.46162 3.81623,-3.98342 5.00292,-0.89095 1.53906,4.01071 0.78543,17.23859 -1.19889,21.04336 -1.09548,2.10049 -1.99179,4.57702 -1.99179,5.5034 0,0.92639 -0.9,2.43127 -2,3.34419 -1.1,0.91292 -2,2.48638 -2,3.49659 0,1.01021 -1.2,3.03674 -2.66666,4.50341 -1.46667,1.46666 -2.66667,3.52623 -2.66667,4.57681 0,1.05059 -1.2,2.29102 -2.66667,2.75652 -1.46666,0.4655 -2.66666,1.93247 -2.66666,3.25992 0,1.32746 -0.87677,3.14121 -1.94837,4.03056 -1.0716,0.88935 -2.35891,2.91051 -2.86069,4.49148 -0.50177,1.58096 -1.63343,3.47677 -2.51478,4.21292 -5.43816,4.5422 -10.30966,39.4289 -5.23378,37.48111 1.15998,-0.44513 2.72898,-0.80932 3.48668,-0.80932 0.7577,0 0.35969,-1.55358 -0.88446,-3.45239 -1.74115,-2.65733 -2.05475,-4.95991 -1.36177,-9.99851 0.49518,-3.60037 1.44411,-6.88221 2.10875,-7.29297 0.66463,-0.41076 1.20842,-1.91958 1.20842,-3.35291 0,-2.37217 1.03551,-4.96774 4.21691,-10.56989 0.62468,-1.1 1.87218,-3.5 2.77224,-5.33333 0.90005,-1.83334 2.69569,-4.11736 3.99032,-5.07561 1.29462,-0.95825 2.35386,-2.51526 2.35386,-3.46002 0,-0.94475 1.2,-2.80372 2.66667,-4.13104 1.46666,-1.32732 2.66666,-3.2049 2.66666,-4.17241 0,-0.96751 1.8,-2.68993 4,-3.82759 2.39531,-1.23866 4,-3.12454 4,-4.70091 0,-1.44783 0.58857,-2.63242 1.30793,-2.63242 0.71936,0 1.7021,-1.65 2.18385,-3.66667 0.48176,-2.01667 1.31588,-4.26667 1.85362,-5 0.53773,-0.73333 1.76843,-4.48333 2.73488,-8.33333 0.96645,-3.85 2.31188,-7 2.98985,-7 2.56981,0 -2.13188,19.59508 -5.51296,22.97616 -0.85644,0.85644 -1.55717,2.34531 -1.55717,3.3086 0,0.96328 -0.55723,2.79328 -1.23829,4.06666 -0.68106,1.27338 -2.31577,5.11063 -3.63269,8.52722 -2.0347,5.27879 -3.15965,6.44124 -7.48858,7.73822 -3.37157,1.01015 -5.51354,2.62924 -6.33431,4.78803 -0.68207,1.79398 -1.81454,3.26177 -2.51661,3.26177 -0.70207,0 -1.66532,1.35 -2.14056,3 -0.47524,1.65 -1.96024,5.42555 -3.30001,8.3901 -2.93146,6.48656 -4.61245,16.62897 -3.3929,20.4714 0.68856,2.16947 1.83209,2.71877 5.13164,2.46502 7.3408,-0.56455 5.08467,3.23352 -4.04644,6.81197 -4.56064,1.78731 -8.00193,3.71912 -7.6473,4.29292 0.35463,0.5738 -0.56394,1.4269 -2.04125,1.89578 -1.47732,0.46888 -3.09238,1.54589 -2.68603,2.096 4.167,5.64123 18.42485,-3.13172 20.60866,-4.13801 9.13363,-4.25927 12.02311,-5.08738 13.49341,-3.86715 1.5669,1.30042 1.35145,1.96137 -1.32587,4.06735 -1.75825,1.38304 -3.87212,2.51461 -4.6975,2.51461 -2.1416,0 -14.39265,6.35061 -15.40218,7.98407 -2.06472,3.34078 3.67729,2.32969 15.23315,-2.68236 8.5677,-3.71601 12.93435,-4.99101 13.87428,-4.05109 1.698,1.698 2.39046,1.14172 -10.87906,8.73962 -6.10231,3.49408 -10.60231,6.79753 -10,7.341 0.60231,0.54347 3.34908,1.3292 6.10393,1.74605 4.45276,0.67378 6.21505,-0.0541 15.87398,-6.55611 9.72823,-6.5487 14.45053,-8.11984 14.45053,-4.80778 0,0.62174 -4.51102,4.28003 -10.0245,8.12953 -5.51347,3.84951 -9.67806,7.55965 -9.25464,8.24476 0.42342,0.6851 6.92986,1.24565 14.45875,1.24565 12.73269,0 13.89928,-0.22396 16.70089,-3.20613 z m 22.89173,-28.35838 c -1.04194,-0.44526 -3.47725,-2.42876 -5.4118,-4.40778 -2.97582,-3.04421 -5.02414,-3.72454 -13.30376,-4.41867 -9.41818,-0.78959 -9.97961,-1.03396 -14.92153,-6.49472 -2.82433,-3.12084 -5.16537,-6.29827 -5.20233,-7.06096 -0.037,-0.76268 -0.36105,-4.89619 -0.7202,-9.18557 -0.35916,-4.28939 -0.10002,-8.48939 0.57585,-9.33334 0.67588,-0.84395 1.54993,-3.63445 1.94234,-6.20112 0.39241,-2.56667 1.58391,-10.36667 2.64777,-17.33333 2.18134,-14.2844 1.75799,-58.61072 -0.63672,-66.66667 -0.76296,-2.56667 -3.51329,-6.89057 -6.11183,-9.60868 -3.82575,-4.00177 -4.74733,-6.0233 -4.84399,-10.62549 -0.0925,-4.40302 0.40633,-5.7899 2.21397,-6.15576 1.86394,-0.37726 2.33334,0.45658 2.33334,4.14494 0,3.40346 1.22409,5.97029 4.65655,9.76443 6.59586,7.29088 10.34653,15.34206 8.99318,19.30476 -1.5844,4.63925 -1.00625,37.51455 0.71364,40.57912 1.34492,2.39645 1.51561,2.41675 2.21363,0.26335 2.13672,-6.59193 2.39199,-7.022 3.07408,-5.17912 0.73444,1.98432 -1.1576,9.09277 -5.18892,19.4949 -4.84605,12.5044 -7.1422,39.16235 -3.67451,42.66047 0.714,0.72028 5.75195,1.5345 11.19543,1.80938 8.58093,0.43332 10.16647,0.91068 11.92155,3.58929 1.11338,1.69922 3.23891,3.47499 4.72341,3.94615 1.4845,0.47116 3.05562,2.2772 3.49138,4.01341 1.13714,4.5307 7.69705,6.61739 11.98029,3.8109 1.77849,-1.16531 3.23362,-3.20321 3.23362,-4.52866 0,-1.57295 1.6243,-2.94598 4.6769,-3.95343 2.57229,-0.84894 5.26119,-2.63527 5.97531,-3.96963 0.9297,-1.73716 3.57719,-2.69058 9.3231,-3.35746 6.75111,-0.78355 8.02469,-1.34432 8.02469,-3.53333 0,-1.43108 0.95506,-4.44886 2.12237,-6.70618 1.98781,-3.84402 1.93642,-4.65473 -0.81075,-12.78766 -1.8422,-5.4538 -2.66423,-10.3404 -2.21016,-13.13847 0.39762,-2.45027 0.16246,-4.80144 -0.52259,-5.22482 -0.68505,-0.42338 -1.24554,-1.86091 -1.24554,-3.19451 0,-1.33359 -0.9,-3.17165 -2,-4.08457 -2.47239,-2.0519 -2.62786,-7.84276 -0.2352,-8.76091 1.36545,-0.52397 1.67602,-4.51222 1.37243,-17.62482 -0.2158,-9.32118 -0.77375,-19.6712 -1.23988,-23.00004 -0.65495,-4.67736 -0.36091,-6.45627 1.29424,-7.82992 1.17796,-0.97762 2.14174,-2.60403 2.14174,-3.61423 0,-1.01021 0.56843,-1.83674 1.26317,-1.83674 2.1713,0 8.2325,-13.64315 9.02173,-20.30702 0.48627,-4.10577 1.3962,-6.35965 2.56749,-6.35965 3.41906,0 2.22193,12.57262 -2.07151,21.75571 -4.87616,10.42947 -7.96168,22.27475 -8.05182,30.91096 -0.0865,8.28718 2.11242,42.58651 3.07726,48 3.5469,19.90063 3.69963,23.94304 1.25951,33.33575 -1.33393,5.13467 -4.08893,11.51686 -6.12222,14.18265 -3.35811,4.4027 -4.46384,4.92901 -12.06569,5.7431 -6.89977,0.73891 -9.01842,1.58452 -12.0697,4.81736 -2.03551,2.15663 -4.70007,3.92774 -5.92124,3.93581 -1.22117,0.008 -4.32031,0.28821 -6.88698,0.62253 -2.56666,0.33432 -5.51916,0.24355 -6.5611,-0.20171 z M 146.44779,341.11111 c -0.69705,-14.15473 1.26161,-23.77217 5.65714,-27.77778 3.73688,-3.40538 5.61063,-10.13683 4.63418,-16.64828 -0.49638,-3.31011 -1.47121,-6.01838 -2.16628,-6.01838 -0.69508,0 -3.1473,-1.8 -5.44939,-4 -3.50268,-3.34736 -5.26773,-4 -10.81779,-4 -6.10825,0 -6.491,0.18432 -4.84511,2.33333 0.98288,1.28333 3.09559,3.53333 4.6949,5 1.59931,1.46667 3.23702,4.46667 3.63934,6.66667 0.82367,4.50391 -1.80137,27.33333 -3.14291,27.33333 -0.94989,0 -2.52816,-2.99939 -6.13381,-11.65689 -1.29578,-3.11129 -3.44244,-6.00172 -4.77035,-6.42318 -1.32791,-0.42146 -2.41438,-1.6461 -2.41438,-2.72141 0,-1.07532 -2.1,-3.19415 -4.66667,-4.70852 C 118.1,296.97563 116,295.00699 116,294.11525 c 0,-0.89174 -2.1,-2.62277 -4.66667,-3.84673 -2.56667,-1.22396 -4.66667,-3.14993 -4.66667,-4.27995 0,-1.13001 -1.51076,-2.62896 -3.35724,-3.33099 -1.84649,-0.70204 -3.900523,-2.70535 -4.564529,-4.45182 -0.664006,-1.74647 -2.162251,-3.54186 -3.329433,-3.98975 -1.167182,-0.44789 -2.711712,-2.17972 -3.432289,-3.84851 -0.720576,-1.66879 -1.842037,-3.93417 -2.492136,-5.03417 -8.021472,-13.57274 -9.795855,-42.30142 -3.386549,-54.83095 0.984037,-1.92369 1.498589,-3.78819 1.143448,-4.14333 -0.355141,-0.35514 0.268788,-1.40468 1.38651,-2.33231 1.117722,-0.92763 2.032221,-2.72013 2.032221,-3.98335 0,-1.26322 1.185851,-3.36994 2.635225,-4.6816 1.449374,-1.31167 2.357549,-2.83414 2.018167,-3.38327 -0.339382,-0.54913 0.574766,-2.51358 2.031441,-4.36544 1.456675,-1.85186 2.6485,-3.92939 2.6485,-4.61674 0,-0.68734 1.200004,-2.33569 2.666664,-3.66301 1.46667,-1.32731 2.66667,-3.21522 2.66667,-4.19535 0,-0.98013 1.2,-2.53146 2.66667,-3.44741 1.46666,-0.91595 2.66666,-2.62804 2.66666,-3.80465 0,-1.17661 1.2,-3.22527 2.66667,-4.55259 C 114.8,162.00602 116,160.18649 116,159.28994 c 0,-0.89655 0.9625,-2.4289 2.1389,-3.40522 1.17639,-0.97632 2.66154,-3.14979 3.30033,-4.82992 0.63879,-1.68014 1.77628,-3.0548 2.52776,-3.0548 2.24722,0 1.56593,2.22487 -1.96699,6.42351 -1.83334,2.17879 -3.33334,4.85136 -3.33334,5.93904 0,1.08768 -0.9,2.72453 -2,3.63745 -1.1,0.91292 -2,2.57024 -2,3.68294 0,1.11269 -0.93349,2.70566 -2.07441,3.53993 -1.14093,0.83427 -2.21723,2.48988 -2.39178,3.67915 -0.17455,1.18926 -0.93298,2.97282 -1.68541,3.96347 -0.75243,0.99065 -2.18275,4.50118 -3.17848,7.80118 -0.99573,3.3 -2.52322,6.9 -3.39442,8 -2.007161,2.53428 -3.050572,6.48047 -5.739333,21.70621 -1.693303,9.58873 1.276614,24.56867 5.389913,27.18617 0.95733,0.60919 2.3865,2.27673 3.17594,3.70564 0.78944,1.42891 3.17508,3.06329 5.30142,3.63197 2.12635,0.56867 4.78044,2.22433 5.89799,3.67925 1.5807,2.0579 4.84466,2.99676 14.69857,4.22799 7.7942,0.97387 13.07682,2.27766 13.73292,3.38939 1.66849,2.82716 20.65394,2.47323 23.87872,-0.44516 1.53645,-1.39046 5.5294,-2.47184 10.43832,-2.82692 7.71226,-0.55785 7.95004,-0.47696 7.95004,2.70452 0,2.20431 -1.09288,3.77751 -3.33333,4.79833 -1.83334,0.83532 -3.33334,2.41052 -3.33334,3.50044 0,2.48209 -4.08868,4.74217 -8.57901,4.74217 -3.96539,0 -4.01377,0.24312 -1.45944,7.33333 3.23756,8.98666 2.61098,18.75812 -1.62821,25.39188 -2.01667,3.1558 -5.01667,6.37078 -6.66667,7.14439 -1.65,0.77361 -3,2.04807 -3,2.83214 0,0.78407 -1.55919,2.8706 -3.46487,4.63672 -2.88881,2.67726 -3.60926,4.81016 -4.33333,12.82897 -0.52726,5.83907 -1.52328,9.83463 -2.53513,10.16964 -1.08513,0.35928 -1.74304,-0.99895 -1.88554,-3.89263 z m 206.88553,-11.69098 c 0,-9.06292 -1.52611,-13.92966 -5.72164,-18.24622 -1.61976,-1.66649 -4.29503,-4.43347 -5.94503,-6.14884 -1.65,-1.71537 -3,-3.89061 -3,-4.83387 0,-0.94325 -0.9,-2.61501 -2,-3.71501 -2.27507,-2.27507 -2.79045,-14.49695 -0.66666,-15.80952 0.73333,-0.45323 1.33333,-2.27721 1.33333,-4.05329 0,-2.34153 -0.92599,-3.46165 -3.3685,-4.07468 -1.85268,-0.46499 -4.0479,-2.12643 -4.87827,-3.69207 -0.83037,-1.56565 -2.61454,-3.63065 -3.96483,-4.5889 -1.35029,-0.95825 -2.45507,-2.99434 -2.45507,-4.52464 0,-2.68663 0.42253,-2.75047 12.2799,-1.85536 6.75395,0.50986 13.09968,1.60736 14.10162,2.4389 1.18644,0.98466 2.13501,1.048 2.7201,0.18162 0.49411,-0.73165 9.23257,-2.25923 19.41879,-3.39463 15.1763,-1.69161 18.90794,-2.53482 20.66666,-4.66988 1.18045,-1.43304 3.79626,-3.63071 5.81293,-4.8837 2.01667,-1.253 3.66667,-3.12392 3.66667,-4.15759 0,-1.03368 1.08647,-2.22425 2.41438,-2.64571 2.31927,-0.73611 4.70124,-5.33738 8.02815,-15.50807 2.15329,-6.58281 1.84875,-22.14946 -0.55897,-28.572 -1.09967,-2.93334 -2.97108,-8.33334 -4.15869,-12 -1.18762,-3.66667 -2.93797,-7.31557 -3.88967,-8.10866 -2.63437,-2.19535 -4.96276,-8.93234 -2.84579,-8.23402 0.92249,0.30429 2.38902,1.96908 3.25895,3.69952 0.86994,1.73045 3.11994,3.95223 5,4.93729 1.93193,1.01224 3.4183,2.95026 3.4183,4.45696 0,1.46626 0.9,3.0113 2,3.4334 1.1,0.42211 2,1.82982 2,3.12823 0,1.29842 0.9,3.10769 2,4.02061 1.1,0.91292 2,2.75098 2,4.08457 0,1.3336 0.54615,2.76226 1.21367,3.1748 2.16012,1.33504 4.47996,19.65426 3.63169,28.67868 -0.809,8.60662 -6.43072,26.56963 -8.76719,28.01364 -0.66004,0.40793 -1.59846,2.32899 -2.08538,4.26902 -0.48692,1.94003 -2.03449,3.82785 -3.43904,4.19515 -1.47274,0.38513 -2.55375,1.82961 -2.55375,3.4124 0,1.50952 -1.15936,3.36506 -2.57636,4.12341 -1.41701,0.75836 -2.95953,2.58605 -3.42783,4.06154 -0.4683,1.47549 -2.60893,3.59153 -4.75696,4.70232 -2.14803,1.11079 -3.90551,2.84551 -3.90551,3.85494 0,1.00943 -1.7434,2.44308 -3.87422,3.18589 -2.13082,0.74281 -4.25534,2.55135 -4.72115,4.01899 -0.46581,1.46764 -2.62585,3.28857 -4.80009,4.04651 -2.17424,0.75795 -4.54829,2.7581 -5.27567,4.44478 -0.72738,1.68668 -2.01855,4.26669 -2.86928,5.73336 -0.85073,1.46667 -1.90216,3.463 -2.33652,4.43629 -1.37048,3.07095 -3.15491,1.8812 -5.04382,-3.36295 -3.08081,-8.55315 0.82229,-23.79626 6.92075,-27.02817 2.05164,-1.08729 1.12911,-1.22511 -4,-0.5976 -7.57234,0.92642 -11.33333,2.56752 -11.33333,4.94528 0,0.8978 -1.2,2.38177 -2.66667,3.29772 -4.21064,2.62959 -3.61893,12.72247 1.31644,22.45487 5.65314,11.14781 5.50578,27.18789 -0.24977,27.18789 -0.58667,0 -1.06667,-3.56094 -1.06667,-7.9132 z M 200.41239,263.66667 c -2.46067,-3.80324 -4.37277,-7.16377 -5.58618,-9.81774 -1.58693,-3.47093 -5.09954,-4.47391 -15.75061,-4.49739 -6.70577,-0.0148 -8.60527,-0.51439 -10.10693,-2.65831 -1.01706,-1.45206 -4.05108,-3.56011 -6.74227,-4.68456 -2.69119,-1.12445 -4.89307,-2.86294 -4.89307,-3.8633 0,-1.00037 -0.84785,-2.5225 -1.88411,-3.38252 -1.03626,-0.86002 -2.29821,-4.57458 -2.80434,-8.25458 -0.72649,-5.28219 -1.59306,-6.99746 -4.1159,-8.14694 -1.75761,-0.80082 -3.19565,-2.01711 -3.19565,-2.70286 0,-0.68575 -1.12541,-2.83944 -2.50091,-4.78598 -8.68602,-12.29201 -4.25896,-39.46345 8.58447,-52.68791 5.14703,-5.29973 16.2105,-11.51791 20.49281,-11.51791 1.46576,0 4.50639,-1.8 6.75696,-4 2.25057,-2.2 4.95742,-4 6.01523,-4 1.05781,0 2.92623,-1.53067 4.15203,-3.40149 1.22581,-1.87081 3.93964,-4.28622 6.03074,-5.36757 2.0911,-1.08135 3.802,-2.8813 3.802,-3.99989 0,-1.11858 1.95,-2.85984 4.33333,-3.86946 2.38334,-1.00962 5.03017,-2.98573 5.88186,-4.39137 2.15293,-3.55321 15.49584,-6.23014 25.08303,-5.0323 6.30927,0.78829 8.27103,1.74448 12.64682,6.16422 2.84854,2.87715 5.69272,5.23119 6.32039,5.23119 2.54286,0 7.0679,-4.31657 7.0679,-6.74227 0,-1.42509 0.65927,-2.59106 1.46505,-2.59106 0.80578,0 3.28663,-1.95 5.513,-4.33334 C 270.71443,106.33351 271.6709,106 279.40556,106 c 6.83246,0 8.96391,0.54894 11.54437,2.97315 1.74063,1.63524 5.08896,3.64393 7.44075,4.46377 2.35179,0.81984 4.27597,2.31651 4.27597,3.32594 0,1.00943 1.8,2.76614 4,3.90381 2.2,1.13766 4,2.91915 4,3.95886 0,1.0397 1.8,2.95366 4,4.25323 2.2,1.29957 4,2.89367 4,3.54243 0,2.6537 11.74258,12.58426 17.33334,14.65859 7.20692,2.67397 19.27641,13.99219 25.43892,23.85546 3.57793,5.72658 4.5195,8.7679 4.97086,16.05626 0.71628,11.56594 -0.52175,17.92125 -4.18566,21.48667 -2.95643,2.87697 -5.21867,8.3396 -6.93825,16.75381 -0.94922,4.64475 -11.08394,16.10135 -14.24353,16.10135 -0.88486,0 -2.83138,1.44868 -4.32559,3.21928 -2.34395,2.77752 -4.24306,3.32604 -13.83959,3.99723 -12.11277,0.84718 -13.54383,1.29397 -13.54383,4.22852 0,1.07487 -1.48324,2.51824 -3.29609,3.20748 -1.8431,0.70075 -3.67011,2.74337 -4.14455,4.63367 -0.55917,2.22792 -1.77015,3.38049 -3.5518,3.38049 -2.42796,0 -2.62141,-0.59785 -1.89896,-5.8687 0.79413,-5.79383 7.43555,-17.42379 10.54123,-18.45902 1.22645,-0.40882 1.1855,-1.78784 -0.17555,-5.91188 -1.09157,-3.30748 -1.35983,-6.60742 -0.69664,-8.56955 0.59317,-1.75497 0.94176,-3.90951 0.77464,-4.78788 -0.16713,-0.87837 1.06524,-2.31964 2.7386,-3.20282 1.67335,-0.88318 4.27302,-2.91656 5.77705,-4.51862 2.00984,-2.14084 4.98913,-3.14848 11.24133,-3.80196 4.67871,-0.48902 10.01518,-1.8775 11.85882,-3.0855 1.84365,-1.20801 6.37299,-2.86721 10.06521,-3.68712 4.55797,-1.01217 7.16648,-2.4001 8.1253,-4.32332 0.7767,-1.5579 2.05603,-3.64655 2.84295,-4.64143 5.23914,-6.62369 1.25832,-16.88298 -11.96882,-30.84578 -5.85813,-6.18395 -9.48437,-8.96873 -11.69512,-8.98129 -5.40989,-0.0307 -9.08089,-1.4926 -9.8524,-3.92341 -0.40505,-1.2762 -2.35361,-3.05719 -4.33012,-3.95775 -3.60379,-1.642 -5.15756,-2.91024 -13.53626,-11.04883 L 303.63763,130 h -19.37487 c -14.46051,0 -19.51767,0.42878 -19.93787,1.69048 -1.33965,4.02248 -4.69979,5.64285 -11.70153,5.64285 -5.60806,0 -7.76532,-0.62166 -9.82348,-2.83083 -3.48521,-3.74094 -10.61079,-4.90479 -24.00397,-3.92066 -9.09754,0.66848 -11.37568,1.3016 -13.22657,3.67578 -1.22981,1.57751 -4.76615,3.53267 -7.85854,4.3448 -3.09238,0.81212 -6.09238,2.27318 -6.66666,3.2468 C 189.87984,143.82313 173.69612,152 170.95363,152 c -6.21298,0 -19.10231,11.68188 -23.04948,20.89026 -3.46092,8.07399 -4.55668,19.47387 -2.35085,24.4572 1.57794,3.56479 5.94296,6.65254 9.40444,6.65254 0.82442,0 2.53284,0.93566 3.79649,2.07925 1.34484,1.21706 7.63595,2.82486 15.17179,3.87738 10.6091,1.48177 13.40655,2.37251 15.89965,5.0626 1.66397,1.79546 3.5839,3.50063 4.26653,3.78928 0.68262,0.28865 2.65092,2.53141 4.374,4.98389 3.25212,4.62878 3.26466,5.58483 0.23,17.53104 -1.38519,5.45292 -1.27539,6.18951 1.2244,8.21372 1.51033,1.22299 2.74606,2.80886 2.74606,3.52415 0,0.7153 0.8963,3.01912 1.99178,5.11961 2.6814,5.14134 2.51838,7.15241 -0.57976,7.15241 -1.42339,0 -3.07322,-0.75 -3.66629,-1.66666 z m -6.25944,-28.67973 c 0.86342,-4.60243 -0.3373,-8.38172 -2.93844,-9.24877 -0.6939,-0.2313 -2.7385,2.28299 -4.54356,5.58731 -1.80506,3.30432 -3.74446,6.00785 -4.30978,6.00785 -0.56531,0 -1.02784,0.56199 -1.02784,1.24886 0,1.30214 7.46279,2.49681 10.29706,1.64839 0.89672,-0.26843 2.03187,-2.62806 2.52256,-5.24364 z m 133.60648,4.36473 c 0.34131,-0.34131 0.0178,-1.38506 -0.71893,-2.31945 -2.26809,-2.87665 -2.97011,-8.13072 -1.78583,-13.36555 1.23025,-5.43805 -0.12498,-6.50015 -3.8095,-2.98553 -1.16152,1.10796 -3.5233,3.08324 -5.24841,4.38952 -2.99236,2.26586 -3.05664,2.6483 -1.39824,8.31886 0.95607,3.2691 2.36752,6.41009 3.13655,6.97999 1.34836,0.9992 8.55383,0.25269 9.82436,-1.01784 z M 173.33831,231 c 0.003,-2.01667 1.20488,-5.63468 2.67141,-8.04003 3.16383,-5.18917 2.10403,-6.02027 -6.85719,-5.37742 -5.42109,0.38889 -5.84669,0.69924 -6.22103,4.53645 -0.29907,3.06565 0.60493,5.19675 3.53495,8.33334 4.84039,5.18166 6.86534,5.34304 6.87186,0.54766 z m 169.25625,2.33333 c 1.39712,0 5.40543,-10.6617 5.40543,-14.37791 0,-2.59699 -0.70072,-2.95542 -5.77778,-2.95542 -6.61792,0 -8.19323,0.95842 -5.97281,3.63386 0.85779,1.03357 1.60258,4.84493 1.6551,8.46968 0.0712,4.9136 0.5473,6.41735 1.8712,5.91012 0.97665,-0.37418 2.24513,-0.68033 2.81886,-0.68033 z m -206.07577,24.09791 c -1.54799,-0.66445 -3.17188,-2.13934 -3.60865,-3.27753 -0.43676,-1.13819 -2.92022,-2.95779 -5.5188,-4.04354 -2.59857,-1.08575 -4.72468,-2.81172 -4.72468,-3.83548 0,-1.02377 -1.2,-2.94737 -2.66666,-4.27469 -1.46667,-1.32732 -2.66667,-3.4849 -2.66667,-4.79463 0,-1.30973 -0.54379,-2.71741 -1.20842,-3.12817 -3.54167,-2.18887 -2.42424,-26.33928 1.41941,-30.6772 0.61729,-0.69667 1.12234,-2.2732 1.12234,-3.50341 0,-1.2302 0.9,-2.98367 2,-3.89659 1.1,-0.91292 2,-2.71292 2,-4 0,-1.28708 0.9,-3.08708 2,-4 1.1,-0.91292 2,-2.54571 2,-3.62842 0,-4.05541 4.31347,-11.03825 6.81859,-11.03825 2.98893,0 3.17613,2.34678 0.47234,5.92151 -1.07668,1.42349 -1.9576,3.63064 -1.9576,4.90476 0,1.27413 -0.93053,3.24713 -2.06785,4.38445 -1.44558,1.44558 -2.08694,4.78447 -2.13125,11.09524 -0.0804,11.44721 1.22589,17.43616 4.14368,18.99771 1.64107,0.87828 2.32435,2.99113 2.39089,7.39319 0.0551,3.64595 0.95871,7.11989 2.21219,8.50497 1.16546,1.28782 2.11901,3.2482 2.11901,4.35641 0,1.16851 2.24041,2.75434 5.33333,3.7751 2.93334,0.96808 5.33334,2.49993 5.33334,3.40409 0,2.34255 3.43264,3.49425 13.22713,4.43785 8.72607,0.84068 10.37094,1.94805 8.14013,5.48011 -0.97022,1.53615 -4.68231,2.06404 -16.31166,2.31967 -8.28058,0.18202 -16.32214,-0.2127 -17.87014,-0.87715 z m 204.4812,-2.26966 c -1.28334,-0.37974 -2.33334,-1.79869 -2.33334,-3.15322 0,-2.05189 1.47432,-2.62066 8.83688,-3.40913 6.9563,-0.74495 8.97245,-1.46477 9.47394,-3.38245 0.35038,-1.33986 2.63691,-3.09612 5.08117,-3.9028 6.12859,-2.02262 11.87213,-11.71122 10.68714,-18.02779 -0.68346,-3.64314 -0.33575,-4.74515 1.86961,-5.92542 1.49007,-0.79746 3.98338,-3.9475 5.54069,-7.00008 2.334,-4.57502 2.717,-7.15008 2.17993,-14.65643 -0.41362,-5.78088 -1.44602,-9.98416 -2.82712,-11.51026 -2.94756,-3.25701 -2.73779,-5.52733 0.51069,-5.52733 3.07666,0 7.96778,7.1066 7.97542,11.58797 0.003,1.60672 0.54287,3.25375 1.20029,3.66006 0.65742,0.4063 1.87498,4.64171 2.7057,9.41202 1.69314,9.72272 -0.11123,25.02618 -3.39313,28.77827 -1.01267,1.15774 -1.84121,2.55511 -1.84121,3.10526 0,0.55015 -2.60823,3.6085 -5.79606,6.79634 -3.84188,3.84188 -7.44921,6.10619 -10.69928,6.71591 -2.69677,0.50591 -5.68539,2.03654 -6.64136,3.40139 -1.32108,1.88611 -3.95268,2.6311 -10.96739,3.10484 -5.07608,0.34281 -10.27924,0.3126 -11.56257,-0.0672 z M 222.75925,222.24355 c -0.94687,-2.49047 -2.84815,-3.6521 -8.00064,-4.88816 -5.18266,-1.2433 -6.75862,-2.21216 -6.75862,-4.15504 0,-1.39353 0.15,-2.56059 0.33334,-2.59349 0.18333,-0.0329 3.63333,-0.3523 7.66666,-0.70981 11.27885,-0.99972 13.33333,-1.68486 13.33333,-4.44647 0,-1.37423 0.75,-2.78742 1.66667,-3.14042 0.91667,-0.35299 2.49472,-3.45725 3.50679,-6.89834 1.94525,-6.61399 1.74714,-7.46188 -3.75683,-16.07849 -3.13438,-4.90694 -3.51634,-10 -0.74996,-10 1.1,0 2,0.65192 2,1.4487 0,0.79678 1.88595,4.07483 4.19099,7.28454 4.102,5.71194 4.17588,6.07796 3.4796,17.23844 -0.41624,6.67178 -1.46355,12.30408 -2.52432,13.57542 -0.99711,1.19505 -2.77581,5.23584 -3.95266,8.97953 -1.79126,5.69822 -2.71399,6.8754 -5.66602,7.22854 -2.72028,0.32542 -3.81019,-0.32486 -4.76833,-2.84495 z m 56.17407,1.48978 c -0.88,-0.88 -1.6,-2.27861 -1.6,-3.10802 0,-0.82942 -1.35166,-2.23142 -3.00369,-3.11556 -3.2824,-1.75668 -7.16668,-7.55578 -9.94202,-14.84308 -2.95783,-7.76649 -0.99706,-19.4097 4.54693,-27 4.25225,-5.82177 8.39878,-8.27444 8.39878,-4.96786 0,0.75101 -2.1,4.41834 -4.66666,8.14962 -6.45472,9.38351 -6.17466,18.77975 0.78691,26.4017 3.37004,3.68972 4.42381,4.10197 8.5206,3.33341 6.64511,-1.24663 11.46349,0.17428 10.50116,3.09672 -2.96799,9.01328 -5.98646,13.65307 -8.88217,13.65307 -1.68291,0 -3.77984,-0.72 -4.65984,-1.6 z m -27.4795,-58.02036 c -0.50797,-1.60044 -2.06219,-3.27128 -3.45383,-3.71297 -1.39164,-0.44169 -2.91968,-2.03004 -3.39565,-3.52967 -0.5152,-1.62326 -3.51028,-3.82576 -7.40153,-5.4429 -3.59489,-1.49396 -6.53615,-3.2363 -6.53615,-3.87186 0,-1.98035 -14.41386,-1.36152 -15.60041,0.66977 -0.58644,1.00394 -2.46533,2.25995 -4.1753,2.79113 -2.69957,0.83858 -3.05078,0.56126 -2.66667,-2.10561 0.33875,-2.35192 1.83493,-3.47328 6.38705,-4.78697 3.26957,-0.94357 6.44938,-2.61745 7.06625,-3.71973 1.7374,-3.10456 19.06063,-2.83079 20.82904,0.32917 1.9515,3.48715 16.96389,3.35142 19.54371,-0.17669 4.00869,-5.48221 27.60725,-0.39943 25.3581,5.46176 -0.40798,1.06317 -0.74177,2.41406 -0.74177,3.00199 0,0.58792 -4.05,1.47364 -9,1.96827 -11.34351,1.13349 -17.66667,3.09051 -17.66667,5.46783 0,1.01733 -1.23384,2.51002 -2.74188,3.31709 -1.50803,0.80708 -3.22311,2.76833 -3.8113,4.35835 l -1.06943,2.89094 z m 115.73163,-29.68591 c -1.54799,-0.62549 -3.17188,-2.06849 -3.60865,-3.20669 -0.43677,-1.13819 -2.92022,-2.95778 -5.5188,-4.04353 -2.59857,-1.08576 -4.72468,-2.83957 -4.72468,-3.89736 0,-1.0578 -2.42004,-2.89158 -5.37788,-4.07507 -2.95783,-1.18349 -5.70413,-3.00201 -6.10289,-4.04117 -0.39876,-1.03915 -3.0368,-2.81436 -5.8623,-3.9449 -2.82551,-1.13055 -5.64058,-2.95487 -6.25572,-4.05406 -0.61514,-1.09919 -3.78997,-2.9411 -7.05519,-4.09314 -3.26522,-1.15203 -7.31139,-3.38601 -8.99149,-4.96438 -2.66514,-2.50377 -4.99706,-2.944118 -18.28423,-3.452713 -19.94388,-0.763396 -26.8187,0.311565 -31.0301,4.851923 -2.88786,3.11345 -4.31091,3.55449 -11.3293,3.51125 -6.73703,-0.0415 -8.42627,-0.54304 -10.51433,-3.12169 -3.57025,-4.409066 -18.25969,-6.204218 -35.46732,-4.334351 -10.19691,1.108048 -13.41706,1.968151 -15.02098,4.012121 -1.12288,1.43094 -4.23378,3.49756 -6.91311,4.59249 -2.67934,1.09492 -5.26003,3.21485 -5.73487,4.71095 -0.47485,1.4961 -2.18267,3.11973 -3.79515,3.60805 -1.61249,0.48833 -4.54798,2.61902 -6.52331,4.73487 -1.97532,2.11586 -4.80104,3.84701 -6.27937,3.84701 -1.47833,0 -4.10726,1.53074 -5.84206,3.40165 -2.38783,2.57517 -5.23555,3.7025 -11.72063,4.63986 -10.72864,1.55073 -13.62217,1.46688 -8.89976,-0.25789 2.01666,-0.73655 3.66666,-2.09805 3.66666,-3.02557 0,-0.92751 2.4,-2.76864 5.33334,-4.09139 2.93333,-1.32275 5.33333,-2.89318 5.33333,-3.48986 0,-0.59667 1.65,-2.90152 3.66667,-5.12188 2.01666,-2.22036 5.31666,-5.86549 7.33333,-8.10028 2.01667,-2.23479 3.66667,-4.60836 3.66667,-5.2746 0,-0.66623 3.96521,-5.215781 8.81159,-10.110109 7.46184,-7.535672 9.96376,-9.198747 16.33333,-10.857072 4.13696,-1.077063 8.12174,-2.429688 8.85508,-3.005833 3.65445,-2.871133 33.10618,3.422467 36.66666,7.835372 1.1,1.363354 3.35,3.17016 5,4.015124 1.65,0.844964 3,2.394078 3,3.442475 0,1.048397 1.15937,2.52665 2.57637,3.285006 1.417,0.758357 2.95743,2.579467 3.42318,4.046912 0.46575,1.467445 1.59599,2.668085 2.51164,2.668085 1.73668,0 10.15548,-8.815013 10.15548,-10.633425 0,-0.573682 1.82293,-1.79814 4.05095,-2.721018 2.22803,-0.922879 4.63509,-2.769418 5.34902,-4.103421 1.81844,-3.397774 9.45671,-5.19807 21.93336,-5.169561 13.01721,0.02974 20.53037,1.644684 23.26713,5.001225 1.13641,1.393776 4.0162,3.302643 6.39953,4.241928 2.38334,0.939284 4.33334,2.462205 4.33334,3.384269 0,0.922063 1.8,2.422063 4,3.333333 2.2,0.91127 4,2.4661 4,3.455177 0,0.989073 1.8,3.129123 4,4.755653 2.2,1.62653 4,3.67548 4,4.55323 0,0.87775 1.5,2.57875 3.33333,3.78 1.83333,1.20124 3.33333,3.08311 3.33333,4.18193 0,1.09882 1.43384,2.65115 3.18631,3.44962 1.75246,0.79848 3.81589,2.83358 4.58539,4.52244 0.76949,1.68886 2.7736,3.50691 4.45356,4.04011 3.38789,1.07527 11.07489,8.64456 8.64302,8.51066 -0.84422,-0.0465 -2.80148,-0.59628 -4.34948,-1.22176 z m -19.0473,227.57777 c -1.07311,-1.07311 -1.46052,-0.4066 -1.43095,2.46184 0.0355,3.44815 0.21705,3.62966 1.4715,1.4715 1.02553,-1.76435 1.01405,-2.87874 -0.0405,-3.93334 z"
       id="path1"
       sodipodi:nodetypes="sssssssscssscscssssssssssssssssssssssssssssssssssssssssssssssscssssssssssssssssssssssssssssssssssssssssssssssssssssscsssssssssssssssssssssssssssssssssssssssssssssssssssssssssscssssssssssssssssssssssssssssssssssssssssssssssssssssssssssssssssssssssssssssssssssssssssssssssssssssssssssssssssssssssssssssssssssssssssssssssssssssssssssssssssssssssssssssssssssssssssssssssssssscssssssssssssssssssssssssssssssssssssssssssssssssssssssssssssssssssssssssssssssssssssssssssssssscssssssssssssssssssssssssssssssssssssssssssssssssssssssssssssssssssssssssssssssssssssssssssssssssssssssssssssssssssssssssssssssssssssssssssssssssssssssssssssssssssssssssssssssssssssssssssssssssssssssssssssssssssssssssssssssssssssssssssssssssssssssssssssssssssssssssssssssssssssssssssssssssssssssssssssssssssscsssssssssssssssssssssssssssssssssssssscsssscsssssssssssssssssssssssssssssssssssssssssssssscssssssssssssssssssssssssssssssssssssssssssssssssssssssssscsssssssssssssssssssssssssssssssssssssssssssssssssssssssssssssss" />
  </g>
</svg>
